# Blender 4.0.2
# www.blender.org
mtllib Plane.mtl
o Cube.002
v 0.107495 2.589641 -4.206038
v -0.107502 2.589641 -4.284513
v 0.107496 0.794043 -3.184155
v -0.107501 0.794043 -3.262630
v 0.107495 2.589641 -4.633770
v -0.107502 2.589641 -4.565651
v 0.107495 0.794043 -4.633770
v -0.107502 0.794043 -4.565651
v 0.107496 1.975229 -3.695096
v -0.000003 2.654995 -4.118918
v -0.107502 1.975229 -3.773571
v -0.000002 0.794043 -2.336288
v -0.000003 1.975229 -3.607978
v -0.000004 0.794043 -4.728810
v 0.107495 1.975229 -4.633770
v -0.107502 1.975229 -4.565651
v -0.000004 2.654995 -4.728810
v -0.000004 1.975229 -4.728810
v -0.053753 2.654995 -4.201715
v 0.053746 2.654995 -4.681290
v 0.107495 2.589641 -4.419903
v -0.107502 2.589641 -4.425082
v 0.053746 2.654995 -4.162478
v -0.053753 2.654995 -4.647231
v -0.999996 -0.000000 5.000001
v -1.000004 0.000000 -4.999999
v -0.980781 -0.195091 5.000001
v -0.980789 -0.195090 -4.999999
v -0.923875 -0.382684 5.000001
v -0.923883 -0.382683 -4.999999
v -0.831465 -0.555571 5.000001
v -0.831473 -0.555570 -5.000000
v -0.707102 -0.707107 5.000001
v -0.707111 -0.707106 -5.000000
v -0.555566 -0.831470 5.000001
v -0.555574 -0.831469 -5.000000
v -0.382679 -0.923880 5.000001
v -0.382687 -0.923879 -5.000000
v -0.195086 -0.980785 5.000000
v -0.195094 -0.980785 -5.000000
v 0.000004 -1.000000 5.000000
v -0.000004 -0.999999 -5.000000
v 0.195095 -0.980785 5.000000
v 0.195086 -0.980785 -5.000000
v 0.382688 -0.923880 5.000000
v 0.382680 -0.923879 -5.000000
v 0.555575 -0.831470 5.000000
v 0.555566 -0.831469 -5.000000
v 0.707111 -0.707107 5.000000
v 0.707103 -0.707106 -5.000000
v 0.831474 -0.555570 5.000000
v 0.831466 -0.555570 -5.000000
v 0.923884 -0.382684 5.000000
v 0.923876 -0.382683 -5.000001
v 0.980789 -0.195091 5.000000
v 0.980781 -0.195090 -5.000001
v 1.000004 -0.000000 5.000000
v 0.999996 0.000000 -5.000001
v 0.980789 0.195090 5.000000
v 0.980781 0.195091 -5.000001
v 0.923884 0.382683 5.000000
v 0.923876 0.382684 -5.000001
v 0.831474 0.555570 5.000000
v 0.831466 0.555571 -5.000000
v 0.707111 0.636028 5.000000
v 0.707103 0.707107 -5.000000
v 0.555575 0.743395 5.000000
v 0.555566 0.831470 -5.000000
v 0.382688 0.835805 5.000000
v 0.382680 0.923880 -5.000000
v 0.195095 0.892710 5.000000
v 0.195086 0.980786 -5.000000
v 0.000004 0.911925 5.000000
v -0.000004 1.000000 -5.000000
v -0.195086 0.892710 5.000000
v -0.195094 0.980786 -5.000000
v -0.382679 0.835805 5.000001
v -0.382687 0.923880 -5.000000
v -0.555566 0.743395 5.000001
v -0.555574 0.831470 -5.000000
v -0.707102 0.634289 5.000001
v -0.707111 0.707107 -5.000000
v -0.831465 0.555570 5.000001
v -0.831473 0.555571 -5.000000
v -0.923875 0.382683 5.000001
v -0.923883 0.382684 -4.999999
v -0.980781 0.195090 5.000001
v -0.980789 0.195091 -4.999999
v 5.366932 -0.200000 -0.545339
v 5.366932 0.200000 -0.691341
v 0.971769 -0.200000 1.355863
v 0.971769 0.200000 1.209861
v 5.366931 -0.200000 -1.341129
v 5.366931 0.200000 -1.214397
v 0.971767 -0.200000 -1.341126
v 0.971767 0.200000 -1.214393
v 3.169350 -0.200000 0.405262
v 5.488523 0.000000 -0.383256
v 3.169350 0.200000 0.259260
v 0.971769 0.000000 1.517946
v 3.169351 0.000000 0.567345
v 0.971767 0.000000 -1.517948
v 3.169349 -0.200000 -1.341128
v 3.169349 0.200000 -1.214395
v 5.488522 0.000000 -1.517952
v 3.169349 0.000000 -1.517950
v 5.488523 0.100000 -0.537298
v 5.488522 -0.100000 -1.429541
v 5.366931 -0.200000 -0.943234
v 5.366931 0.200000 -0.952869
v 5.488523 -0.100000 -0.464298
v 5.488522 0.100000 -1.366174
v -0.999996 0.000000 5.000000
v -0.980781 0.195090 5.000000
v -0.923875 0.382684 5.000000
v -0.831465 0.555570 5.000000
v -0.707102 0.638384 5.000000
v -0.555566 0.744167 5.000000
v -0.382679 0.836577 5.000000
v -0.195086 0.893483 5.000000
v 0.000004 0.912698 5.000000
v 0.195095 0.893483 5.000000
v 0.382688 0.836577 4.999999
v 0.555575 0.744167 4.999999
v 0.707111 0.638384 4.999999
v 0.831474 0.555570 4.999999
v 0.923884 0.382684 4.999999
v 0.980789 0.195090 4.999999
v 1.000004 0.000000 4.999999
v 0.980789 -0.195090 4.999999
v 0.923884 -0.382683 4.999999
v 0.831474 -0.555570 4.999999
v 0.707111 -0.707106 4.999999
v 0.555575 -0.831469 4.999999
v 0.382688 -0.923879 4.999999
v 0.195095 -0.980785 5.000000
v 0.000004 -1.000000 5.000000
v -0.195086 -0.980785 5.000000
v -0.382679 -0.923879 5.000000
v -0.555566 -0.831469 5.000000
v -0.707102 -0.707107 5.000000
v -0.831465 -0.555570 5.000000
v -0.923875 -0.382683 5.000000
v -0.980781 -0.195090 5.000000
v 0.000007 -0.478407 7.762628
v -0.277780 0.123590 6.141468
v -0.469122 0.790372 5.000000
v -0.191336 0.169795 6.141468
v -0.288883 0.865030 5.000000
v -0.097540 0.198248 6.141468
v -0.097541 0.903090 5.000000
v 0.000005 0.207856 6.141468
v 0.097549 0.903090 5.000000
v 0.097550 0.198248 6.141468
v 0.288891 0.865030 5.000000
v 0.191347 0.169795 6.141468
v 0.469131 0.790372 4.999999
v 0.277790 0.123590 6.141468
v -5.371140 -0.200000 -0.545330
v -5.371140 0.200000 -0.691332
v -0.975974 -0.200000 1.355865
v -0.975975 0.200000 1.209863
v -5.371140 -0.200000 -1.341121
v -5.371140 0.200000 -1.214388
v -0.975977 -0.200000 -1.341124
v -0.975976 0.200000 -1.214392
v -3.173558 -0.200000 0.405267
v -5.492731 0.000000 -0.383247
v -3.173558 0.200000 0.259265
v -0.975974 0.000000 1.517948
v -3.173557 0.000000 0.567351
v -0.975977 0.000000 -1.517946
v -3.173559 -0.200000 -1.341122
v -3.173559 0.200000 -1.214390
v -5.492732 0.000000 -1.517943
v -3.173559 0.000000 -1.517945
v -5.492731 0.100000 -0.537290
v -5.492731 -0.100000 -1.429532
v -5.371140 -0.200000 -0.943226
v -5.371140 0.200000 -0.952860
v -5.492731 -0.100000 -0.464289
v -5.492731 0.100000 -1.366165
vn -0.9858 0.1232 0.1144
vn -0.8350 -0.0000 -0.5502
vn -0.4683 0.8836 -0.0000
vn -0.7723 0.6352 -0.0000
vn -0.4675 0.8840 -0.0000
vn 1.0000 -0.0000 -0.0000
vn -1.0000 -0.0000 -0.0000
vn -0.2864 0.5002 0.8172
vn 0.5968 0.3186 0.7364
vn 0.6374 0.3923 0.6632
vn 0.6667 0.4574 0.5885
vn -0.8287 0.3437 0.4416
vn -0.8244 0.2905 0.4857
vn -0.2953 -0.0000 -0.9554
vn 0.6624 -0.0000 -0.7492
vn 0.4895 0.8720 -0.0000
vn 0.4920 0.8706 -0.0000
vn 0.7723 0.6352 -0.0000
vn -0.9952 -0.0980 -0.0000
vn -0.9875 -0.1574 -0.0000
vn -0.9321 -0.3622 -0.0000
vn -0.8392 -0.5438 -0.0000
vn -0.7138 -0.7003 -0.0000
vn -0.5609 -0.8279 -0.0000
vn -0.3864 -0.9223 -0.0000
vn -0.1970 -0.9804 -0.0000
vn -0.0000 -1.0000 -0.0000
vn 0.1970 -0.9804 -0.0000
vn 0.3864 -0.9223 -0.0000
vn 0.5609 -0.8279 -0.0000
vn 0.7138 -0.7003 -0.0000
vn 0.8392 -0.5438 -0.0000
vn 0.9321 -0.3622 -0.0000
vn 0.9875 -0.1574 -0.0000
vn 0.9952 -0.0980 -0.0000
vn 0.9952 0.0980 -0.0000
vn 0.9875 0.1574 -0.0000
vn 0.9321 0.3622 -0.0000
vn 0.7821 0.6232 -0.0000
vn 0.8364 0.5481 0.0018
vn 0.5706 0.8212 0.0031
vn 0.7124 0.7018 0.0055
vn 0.5303 0.8478 0.0068
vn 0.5608 0.8279 0.0073
vn 0.3864 0.9223 0.0081
vn 0.3863 0.9223 0.0081
vn 0.1970 0.9804 0.0086
vn -0.0000 1.0000 0.0088
vn -0.1970 0.9804 0.0086
vn -0.3863 0.9223 0.0081
vn -0.3864 0.9223 0.0081
vn -0.5608 0.8279 0.0073
vn -0.5336 0.8457 0.0069
vn -0.7125 0.7016 0.0056
vn -0.5702 0.8215 0.0032
vn -0.8363 0.5482 0.0019
vn -0.7804 0.6253 -0.0000
vn -0.9321 0.3622 -0.0000
vn -0.0000 -0.0000 -1.0000
vn -0.9875 0.1574 -0.0000
vn -0.9952 0.0980 -0.0000
vn -0.0000 -0.0000 1.0000
vn 0.2290 0.8167 0.5296
vn 0.1310 0.9440 0.3030
vn 0.2293 0.8164 0.5300
vn 0.2217 0.9349 -0.2770
vn 0.3418 0.8870 -0.3105
vn -0.0000 0.8350 -0.5502
vn 0.3799 0.9250 -0.0000
vn 0.3414 0.8883 0.3072
vn 0.3829 -0.9238 -0.0000
vn -0.0000 0.9541 -0.2995
vn 0.3184 -0.5973 0.7361
vn 0.3186 -0.5968 0.7364
vn 0.2612 -0.6981 0.6666
vn 0.0452 -0.6454 0.7625
vn 0.3058 0.9232 0.2327
vn 0.1269 0.9475 0.2934
vn -0.0000 -0.6624 -0.7492
vn 0.6352 -0.7723 -0.0000
vn 0.3799 -0.9250 -0.0000
vn -0.9311 0.0917 0.3529
vn -0.0000 0.9036 0.4285
vn -0.9268 0.1157 0.3572
vn -0.8779 0.2873 0.3831
vn -0.7837 0.4662 0.4104
vn -0.4730 0.7628 0.4409
vn -0.0973 0.8974 0.4304
vn -0.4797 0.7166 0.5063
vn -0.4053 0.7582 0.5108
vn -0.3721 0.7730 0.5139
vn -0.3415 0.8243 0.4516
vn -0.2481 0.8178 0.5193
vn -0.1954 0.8301 0.5223
vn -0.1721 0.8721 0.4581
vn -0.0835 0.8479 0.5236
vn -0.0000 0.8509 0.5254
vn -0.0000 0.8878 0.4603
vn 0.0835 0.8479 0.5236
vn 0.1954 0.8301 0.5223
vn 0.1721 0.8721 0.4581
vn 0.2481 0.8178 0.5193
vn 0.3721 0.7730 0.5139
vn 0.3415 0.8243 0.4516
vn 0.4053 0.7582 0.5108
vn 0.0973 0.8974 0.4304
vn 0.4730 0.7628 0.4409
vn 0.4797 0.7166 0.5063
vn 0.7837 0.4662 0.4104
vn 0.8779 0.2873 0.3831
vn 0.9268 0.1157 0.3572
vn 0.9311 0.0917 0.3529
vn 0.9413 -0.0927 0.3247
vn 0.9140 -0.2773 0.2961
vn -0.0000 -0.9710 0.2391
vn 0.9092 -0.2950 0.2938
vn 0.8401 -0.4726 0.2661
vn 0.7341 -0.6351 0.2405
vn 0.5938 -0.7744 0.2184
vn 0.4224 -0.8839 0.2010
vn 0.2224 -0.9563 0.1896
vn -0.0000 -0.9826 0.1855
vn -0.2224 -0.9563 0.1896
vn -0.4224 -0.8839 0.2010
vn -0.5938 -0.7744 0.2184
vn -0.7341 -0.6351 0.2405
vn -0.8401 -0.4726 0.2661
vn -0.9092 -0.2950 0.2938
vn -0.9140 -0.2773 0.2961
vn -0.9413 -0.0927 0.3247
vn -0.2290 0.8167 0.5296
vn -0.1310 0.9440 0.3030
vn -0.1269 0.9475 0.2934
vn -0.3418 0.8870 -0.3105
vn -0.2217 0.9349 -0.2770
vn -0.3414 0.8883 0.3072
vn -0.3799 0.9250 -0.0000
vn -0.3058 0.9232 0.2327
vn -0.3186 -0.5968 0.7364
vn -0.3184 -0.5973 0.7361
vn -0.0452 -0.6454 0.7625
vn -0.2612 -0.6981 0.6666
vn -0.6352 -0.7723 -0.0000
vn -0.3799 -0.9250 -0.0000
vn -0.8164 0.2293 0.5300
vn -0.0000 1.0000 -0.0000
vn 0.9831 0.1342 0.1246
vn 0.8138 0.3715 0.4468
vn -0.2942 0.5743 0.7640
vn -0.8909 0.2904 0.3492
vn 0.3894 -0.9211 -0.0000
vn -0.0000 -0.6296 0.7769
vn 0.0487 0.8464 0.5303
vn -0.2293 0.8164 0.5300
vn -0.3829 -0.9238 -0.0000
vn -0.3894 -0.9211 -0.0000
vn -0.0487 0.8464 0.5303
vt 0.500000 0.125000
vt 0.625000 0.250000
vt 0.500000 0.250000
vt 0.625000 0.625000
vt 0.625000 0.750000
vt 0.562500 0.750000
vt 0.625000 0.875000
vt 0.562500 1.000000
vt 0.125000 0.750000
vt 0.125000 0.625000
vt 0.375000 0.625000
vt 0.875000 0.750000
vt 0.750000 0.750000
vt 0.375000 0.250000
vt 0.375000 0.125000
vt 0.437500 0.000000
vt 0.562500 0.000000
vt 0.625000 0.125000
vt 0.500000 0.625000
vt 0.500000 0.750000
vt 0.437500 0.750000
vt 0.500000 0.500000
vt 0.375000 0.500000
vt 0.625000 0.500000
vt 0.437500 1.000000
vt 0.375000 0.875000
vt 1.000000 1.000000
vt 0.968750 0.500000
vt 1.000000 0.500000
vt 0.968750 1.000000
vt 0.937500 0.500000
vt 0.937500 1.000000
vt 0.906250 0.500000
vt 0.906250 1.000000
vt 0.875000 0.500000
vt 0.875000 1.000000
vt 0.843750 0.500000
vt 0.843750 1.000000
vt 0.812500 0.500000
vt 0.812500 1.000000
vt 0.781250 0.500000
vt 0.781250 1.000000
vt 0.750000 0.500000
vt 0.750000 1.000000
vt 0.718750 0.500000
vt 0.718750 1.000000
vt 0.687500 0.500000
vt 0.687500 1.000000
vt 0.656250 0.500000
vt 0.656250 1.000000
vt 0.625000 1.000000
vt 0.593750 0.500000
vt 0.593750 1.000000
vt 0.562500 0.500000
vt 0.531250 0.500000
vt 0.531250 1.000000
vt 0.500000 1.000000
vt 0.468750 0.500000
vt 0.468750 1.000000
vt 0.437500 0.500000
vt 0.406250 0.500000
vt 0.406250 1.000000
vt 0.375000 1.000000
vt 0.343750 0.500000
vt 0.343750 1.000000
vt 0.312500 0.500000
vt 0.312500 1.000000
vt 0.281250 0.500000
vt 0.281250 1.000000
vt 0.250000 0.500000
vt 0.218750 1.000000
vt 0.218750 0.500000
vt 0.187500 1.000000
vt 0.187500 0.500000
vt 0.156250 1.000000
vt 0.156250 0.500000
vt 0.125000 1.000000
vt 0.125000 0.500000
vt 0.093750 1.000000
vt 0.093750 0.500000
vt 0.062500 0.500000
vt 0.419706 0.419706
vt 0.383337 0.449553
vt 0.080294 0.419706
vt 0.062500 1.000000
vt 0.031250 0.500000
vt 0.031250 1.000000
vt 0.000000 0.500000
vt 0.514612 0.203178
vt 0.510000 0.250000
vt 0.985388 0.203178
vt 0.375000 0.000000
vt 0.500000 0.000000
vt 0.625000 0.000000
vt 0.375000 0.750000
vt 0.250000 0.490000
vt 0.250000 0.250000
vt 0.296822 0.485388
vt 0.341844 0.471731
vt 0.349776 0.316668
vt 0.449553 0.383337
vt 0.460642 0.362590
vt 0.471731 0.341844
vt 0.360866 0.295922
vt 0.478560 0.319333
vt 0.485388 0.296822
vt 0.367694 0.273411
vt 0.487694 0.273411
vt 0.490000 0.250000
vt 0.370000 0.250000
vt 0.487694 0.226589
vt 0.485388 0.203178
vt 0.367694 0.226589
vt 0.478560 0.180667
vt 0.471731 0.158156
vt 0.360866 0.204078
vt 0.460642 0.137410
vt 0.349776 0.183332
vt 0.419706 0.080294
vt 0.449553 0.116663
vt 0.383337 0.050447
vt 0.341844 0.028269
vt 0.296822 0.014612
vt 0.250000 0.010000
vt 0.203178 0.014612
vt 0.158156 0.028269
vt 0.116663 0.050447
vt 0.080294 0.080294
vt 0.050447 0.116663
vt 0.028269 0.158156
vt 0.014612 0.203178
vt 0.010000 0.250000
vt 0.014612 0.296822
vt 0.028269 0.341844
vt 0.050447 0.383337
vt 0.116663 0.449553
vt 0.158156 0.471731
vt 0.971731 0.158156
vt 0.978560 0.180667
vt 0.528269 0.158156
vt 0.203178 0.485388
vt 0.875000 0.625000
vt 0.250000 0.750000
vt 0.250000 1.000000
vt 0.000000 1.000000
vt 0.703178 0.485388
vt 0.750000 0.490000
vt 0.796822 0.485388
vt 0.841844 0.471731
vt 0.658156 0.471731
vt 0.883337 0.449553
vt 0.919706 0.419706
vt 0.580294 0.419706
vt 0.949553 0.383337
vt 0.550447 0.383337
vt 0.971731 0.341844
vt 0.528269 0.341844
vt 0.985388 0.296822
vt 0.990000 0.250000
vt 0.949553 0.116663
vt 0.919706 0.080294
vt 0.550447 0.116663
vt 0.883337 0.050447
vt 0.580294 0.080294
vt 0.841844 0.028269
vt 0.658156 0.028269
vt 0.796822 0.014612
vt 0.703178 0.014612
vt 0.750000 0.010000
vt 0.616663 0.050447
vt 0.616663 0.449553
vt 0.514612 0.296822
vt 0.960642 0.362590
vt 0.978560 0.319333
vt 0.987694 0.273411
vt 0.987694 0.226589
vt 0.960642 0.137410
s 1
f 13/1/1 4/2/1 12/3/1
f 16/4/2 6/5/2 24/6/2
f 24/6/3 22/7/4 19/8/5
f 1/9/6 9/10/6 15/11/6
f 2/12/7 22/13/7 16/4/7
f 13/1/8 3/14/9 9/15/10
f 23/16/11 13/1/8 9/15/10
f 19/17/12 11/18/13 13/1/8
f 18/19/14 17/20/14 20/21/15
f 14/22/14 15/11/15 7/23/15
f 8/24/2 18/19/14 14/22/14
f 20/21/16 23/25/17 21/26/18
f 26/27/19 27/28/20 25/29/19
f 28/30/20 29/31/21 27/28/20
f 30/32/21 31/33/22 29/31/21
f 32/34/22 33/35/23 31/33/22
f 34/36/23 35/37/24 33/35/23
f 36/38/24 37/39/25 35/37/24
f 38/40/25 39/41/26 37/39/25
f 40/42/26 41/43/27 39/41/26
f 42/44/27 43/45/28 41/43/27
f 44/46/28 45/47/29 43/45/28
f 46/48/29 47/49/30 45/47/29
f 48/50/30 49/24/31 47/49/30
f 50/51/31 51/52/32 49/24/31
f 52/53/32 53/54/33 51/52/32
f 54/8/33 55/55/34 53/54/33
f 56/56/34 57/22/35 55/55/34
f 58/57/36 59/58/37 57/22/36
f 60/59/37 61/60/38 59/58/37
f 62/25/38 63/61/39 61/60/38
f 64/62/40 65/23/41 63/61/39
f 66/63/42 67/64/43 65/23/41
f 68/65/44 69/66/45 67/64/43
f 70/67/46 71/68/47 69/66/45
f 72/69/47 73/70/48 71/68/47
f 73/70/48 76/71/49 75/72/49
f 75/72/49 78/73/50 77/74/51
f 77/74/51 80/75/52 79/76/53
f 79/76/53 82/77/54 81/78/55
f 81/78/55 84/79/56 83/80/57
f 84/79/56 85/81/58 83/80/57
f 34/82/59 32/83/59 82/84/59
f 86/85/58 87/86/60 85/81/58
f 88/87/60 25/88/61 87/86/60
f 71/89/62 73/90/62 43/91/62
f 101/1/63 92/2/64 100/3/65
f 94/5/66 112/6/67 105/20/68
f 112/6/67 110/7/69 107/8/70
f 89/9/71 97/10/27 103/11/27
f 110/13/69 94/5/66 104/4/72
f 101/1/73 91/14/74 97/15/74
f 101/1/73 89/92/75 98/93/76
f 90/94/77 99/18/78 101/1/63
f 105/20/79 108/21/79 93/95/79
f 102/22/79 103/11/79 95/23/79
f 96/24/72 106/19/68 102/22/68
f 108/21/80 111/25/80 109/26/81
f 113/96/82 145/97/83 114/98/84
f 114/98/84 145/97/83 115/99/85
f 115/99/85 145/97/83 116/83/86
f 116/83/86 145/97/83 117/82/87
f 117/82/87 146/100/88 118/101/89
f 118/101/89 146/100/88 147/102/90
f 119/103/91 148/104/92 149/105/93
f 120/106/94 150/107/95 151/108/96
f 121/109/97 152/110/98 153/111/99
f 122/112/100 154/113/101 155/114/102
f 123/115/103 156/116/104 157/117/105
f 158/118/106 125/119/107 124/120/108
f 125/119/107 145/97/83 126/121/109
f 126/121/109 145/97/83 127/122/110
f 127/122/110 145/97/83 128/123/111
f 128/123/111 145/97/83 129/124/112
f 129/124/113 145/97/113 130/125/113
f 130/125/114 145/97/115 131/126/116
f 131/126/116 145/97/115 132/127/117
f 132/127/117 145/97/115 133/128/118
f 133/128/118 145/97/115 134/129/119
f 134/129/119 145/97/115 135/130/120
f 135/130/120 145/97/115 136/131/121
f 136/131/121 145/97/115 137/132/122
f 137/132/122 145/97/115 138/133/123
f 138/133/123 145/97/115 139/134/124
f 139/134/124 145/97/115 140/135/125
f 140/135/125 145/97/115 141/84/126
f 141/84/126 145/97/115 142/136/127
f 142/136/127 145/97/115 143/137/128
f 123/138/62 155/139/62 135/140/62
f 143/137/128 145/97/115 144/141/129
f 144/141/130 145/97/130 113/96/130
f 157/117/105 158/118/106 124/120/108
f 157/117/105 156/116/104 158/118/106
f 156/116/104 145/97/83 158/118/106
f 155/114/102 156/116/104 123/115/103
f 155/114/102 154/113/101 156/116/104
f 154/113/101 145/97/83 156/116/104
f 153/111/99 154/113/101 122/112/100
f 153/111/99 152/110/98 154/113/101
f 152/110/98 145/97/83 154/113/101
f 151/108/96 152/110/98 121/109/97
f 151/108/96 150/107/95 152/110/98
f 150/107/95 145/97/83 152/110/98
f 149/105/93 150/107/95 120/106/94
f 149/105/93 148/104/92 150/107/95
f 148/104/92 145/97/83 150/107/95
f 147/102/90 148/104/92 119/103/91
f 147/102/90 146/100/88 148/104/92
f 146/100/88 145/97/83 148/104/92
f 171/1/131 162/2/132 169/18/133
f 175/20/68 182/6/134 164/5/135
f 177/8/136 180/7/137 182/6/134
f 173/11/27 165/23/27 167/10/27
f 160/12/138 169/142/133 174/4/72
f 161/14/139 171/1/140 167/15/139
f 168/93/141 159/92/142 171/1/140
f 171/1/131 169/18/133 160/94/138
f 163/95/79 175/20/79 176/19/79
f 173/11/79 172/22/79 165/23/79
f 176/19/68 166/24/72 172/22/68
f 178/21/143 179/26/144 181/25/143
f 13/1/8 11/18/13 4/2/145
f 17/20/14 18/19/14 24/6/2
f 18/19/14 16/4/2 24/6/2
f 19/8/5 10/57/146 17/20/146
f 24/6/3 6/5/4 22/7/4
f 19/8/5 17/20/146 24/6/3
f 22/7/4 2/51/4 19/8/5
f 9/10/6 3/78/6 7/23/6
f 15/11/6 5/95/6 21/143/6
f 9/10/6 7/23/6 15/11/6
f 21/143/6 1/9/6 15/11/6
f 16/4/7 8/24/7 11/142/7
f 8/24/7 4/35/7 11/142/7
f 11/142/7 2/12/7 16/4/7
f 22/13/7 6/5/7 16/4/7
f 13/1/147 12/3/147 3/14/147
f 9/15/10 1/92/148 23/16/11
f 23/16/11 10/93/149 13/1/8
f 13/1/8 10/93/149 19/17/12
f 19/17/12 2/94/150 11/18/13
f 5/95/15 15/11/15 20/21/15
f 15/11/15 18/19/14 20/21/15
f 14/22/14 18/19/14 15/11/15
f 8/24/2 16/4/2 18/19/14
f 21/26/18 5/95/18 20/21/16
f 20/21/16 17/20/146 10/57/146
f 23/25/17 1/63/18 21/26/18
f 20/21/16 10/57/146 23/25/17
f 26/27/19 28/30/20 27/28/20
f 28/30/20 30/32/21 29/31/21
f 30/32/21 32/34/22 31/33/22
f 32/34/22 34/36/23 33/35/23
f 34/36/23 36/38/24 35/37/24
f 36/38/24 38/40/25 37/39/25
f 38/40/25 40/42/26 39/41/26
f 40/42/26 42/44/27 41/43/27
f 42/44/27 44/46/28 43/45/28
f 44/46/28 46/48/29 45/47/29
f 46/48/29 48/50/30 47/49/30
f 48/50/30 50/51/31 49/24/31
f 50/51/31 52/53/32 51/52/32
f 52/53/32 54/8/33 53/54/33
f 54/8/33 56/56/34 55/55/34
f 56/56/34 58/57/35 57/22/35
f 58/57/36 60/59/37 59/58/37
f 60/59/37 62/25/38 61/60/38
f 62/25/38 64/62/40 63/61/39
f 64/62/40 66/63/42 65/23/41
f 66/63/42 68/65/44 67/64/43
f 68/65/44 70/67/46 69/66/45
f 70/67/46 72/69/47 71/68/47
f 72/69/47 74/144/48 73/70/48
f 73/70/48 74/144/48 76/71/49
f 75/72/49 76/71/49 78/73/50
f 77/74/51 78/73/50 80/75/52
f 79/76/53 80/75/52 82/77/54
f 81/78/55 82/77/54 84/79/56
f 84/79/56 86/85/58 85/81/58
f 30/99/59 28/98/59 88/141/59
f 28/98/59 26/96/59 88/141/59
f 88/141/59 86/137/59 30/99/59
f 86/137/59 84/136/59 30/99/59
f 84/136/59 82/84/59 32/83/59
f 30/99/59 84/136/59 32/83/59
f 82/84/59 80/135/59 34/82/59
f 80/135/59 78/134/59 36/101/59
f 34/82/59 80/135/59 36/101/59
f 78/134/59 76/133/59 40/106/59
f 76/133/59 74/132/59 42/109/59
f 74/132/59 72/131/59 44/112/59
f 72/131/59 70/130/59 46/115/59
f 70/130/59 68/129/59 46/115/59
f 68/129/59 66/128/59 48/120/59
f 46/115/59 68/129/59 48/120/59
f 66/128/59 64/127/59 50/119/59
f 64/127/59 62/126/59 52/121/59
f 50/119/59 64/127/59 52/121/59
f 62/126/59 60/125/59 56/123/59
f 60/125/59 58/124/59 56/123/59
f 56/123/59 54/122/59 62/126/59
f 54/122/59 52/121/59 62/126/59
f 50/119/59 48/120/59 66/128/59
f 46/115/59 44/112/59 72/131/59
f 44/112/59 42/109/59 74/132/59
f 42/109/59 40/106/59 76/133/59
f 40/106/59 38/103/59 78/134/59
f 38/103/59 36/101/59 78/134/59
f 86/85/58 88/87/60 87/86/60
f 88/87/60 26/145/61 25/88/61
f 87/146/62 25/147/62 27/148/62
f 27/148/62 29/149/62 85/150/62
f 29/149/62 31/151/62 85/150/62
f 31/151/62 33/152/62 81/153/62
f 33/152/62 35/154/62 79/155/62
f 81/153/62 33/152/62 79/155/62
f 35/154/62 37/156/62 77/157/62
f 37/156/62 39/158/62 77/157/62
f 39/158/62 41/159/62 73/90/62
f 41/159/62 43/91/62 73/90/62
f 43/91/62 45/138/62 69/140/62
f 45/138/62 47/160/62 69/140/62
f 47/160/62 49/161/62 67/162/62
f 49/161/62 51/163/62 65/164/62
f 51/163/62 53/165/62 61/166/62
f 53/165/62 55/167/62 59/168/62
f 55/167/62 57/169/62 59/168/62
f 59/168/62 61/166/62 53/165/62
f 61/166/62 63/170/62 51/163/62
f 65/164/62 67/162/62 49/161/62
f 67/162/62 69/140/62 47/160/62
f 63/170/62 65/164/62 51/163/62
f 85/150/62 87/146/62 27/148/62
f 81/153/62 83/171/62 31/151/62
f 83/171/62 85/150/62 31/151/62
f 77/157/62 79/155/62 35/154/62
f 73/90/62 75/172/62 39/158/62
f 75/172/62 77/157/62 39/158/62
f 69/140/62 71/89/62 43/91/62
f 101/1/63 99/18/78 92/2/64
f 105/20/68 106/19/68 94/5/66
f 106/19/68 104/4/72 94/5/66
f 107/8/6 98/57/6 105/20/6
f 112/6/67 94/5/66 110/7/69
f 107/8/6 105/20/6 112/6/6
f 110/7/69 90/51/77 107/8/70
f 97/10/27 91/78/27 95/23/27
f 103/11/27 93/95/151 109/143/81
f 97/10/27 95/23/27 103/11/27
f 109/143/81 89/9/71 103/11/27
f 104/4/72 96/24/72 99/142/78
f 96/24/72 92/35/64 99/142/78
f 99/142/78 90/12/77 104/4/72
f 90/12/77 110/13/69 104/4/72
f 101/1/73 100/3/74 91/14/74
f 97/15/74 89/92/75 101/1/73
f 89/92/75 111/16/152 98/93/76
f 101/1/63 98/93/153 90/94/77
f 98/93/153 107/17/70 90/94/77
f 93/95/79 103/11/79 106/19/79
f 106/19/79 105/20/79 93/95/79
f 102/22/79 106/19/79 103/11/79
f 96/24/72 104/4/72 106/19/68
f 109/26/81 93/95/151 108/21/80
f 108/21/6 105/20/6 98/57/6
f 111/25/80 89/63/71 109/26/81
f 108/21/6 98/57/6 111/25/6
f 117/82/87 145/97/83 146/100/88
f 158/118/106 145/97/83 125/119/107
f 114/148/62 113/147/62 144/146/62
f 144/146/62 143/150/62 115/149/62
f 143/150/62 142/171/62 115/149/62
f 142/171/62 141/153/62 117/152/62
f 141/153/62 140/155/62 118/154/62
f 117/152/62 141/153/62 118/154/62
f 140/155/62 139/157/62 147/173/62
f 139/157/62 138/172/62 149/174/62
f 138/172/62 137/90/62 151/175/62
f 137/90/62 136/89/62 153/176/62
f 136/89/62 135/140/62 155/139/62
f 135/140/62 134/162/62 157/177/62
f 134/162/62 133/164/62 124/160/62
f 133/164/62 132/170/62 125/161/62
f 132/170/62 131/166/62 127/165/62
f 131/166/62 130/168/62 128/167/62
f 130/168/62 129/169/62 128/167/62
f 128/167/62 127/165/62 131/166/62
f 127/165/62 126/163/62 132/170/62
f 125/161/62 124/160/62 133/164/62
f 124/160/62 157/177/62 134/162/62
f 126/163/62 125/161/62 132/170/62
f 135/140/62 157/177/62 123/138/62
f 139/157/62 149/174/62 119/156/62
f 137/90/62 153/176/62 121/159/62
f 149/174/62 138/172/62 120/158/62
f 115/149/62 114/148/62 144/146/62
f 117/152/62 116/151/62 142/171/62
f 116/151/62 115/149/62 142/171/62
f 147/173/62 118/154/62 140/155/62
f 119/156/62 147/173/62 139/157/62
f 151/175/62 120/158/62 138/172/62
f 121/159/62 151/175/62 137/90/62
f 155/139/62 122/91/62 136/89/62
f 122/91/62 153/176/62 136/89/62
f 171/1/131 170/3/154 162/2/132
f 174/4/72 176/19/68 164/5/135
f 176/19/68 175/20/68 164/5/135
f 175/20/7 168/57/7 177/8/7
f 177/8/136 160/51/138 180/7/137
f 180/7/137 164/5/135 182/6/134
f 182/6/7 175/20/7 177/8/7
f 165/23/27 161/78/27 167/10/27
f 167/10/27 159/9/155 173/11/27
f 159/9/155 179/143/144 173/11/27
f 179/143/144 163/95/156 173/11/27
f 162/35/132 166/24/72 169/142/133
f 166/24/72 174/4/72 169/142/133
f 174/4/72 164/5/135 180/13/137
f 180/13/137 160/12/138 174/4/72
f 161/14/139 170/3/139 171/1/140
f 181/16/152 159/92/142 168/93/141
f 159/92/142 167/15/139 171/1/140
f 177/17/136 168/93/157 160/94/138
f 168/93/157 171/1/131 160/94/138
f 176/19/79 173/11/79 163/95/79
f 163/95/79 178/21/79 175/20/79
f 173/11/79 176/19/79 172/22/79
f 176/19/68 174/4/72 166/24/72
f 178/21/143 163/95/156 179/26/144
f 179/26/144 159/63/155 181/25/143
f 181/25/7 168/57/7 178/21/7
f 168/57/7 175/20/7 178/21/7
